<?xml version="1.0" encoding="utf-8"?>
<!-- Generator: Adobe Illustrator 25.4.1, SVG Export Plug-In . SVG Version: 6.00 Build 0)  -->
<svg version="1.1" id="Logo" xmlns="http://www.w3.org/2000/svg" xmlns:xlink="http://www.w3.org/1999/xlink" x="0px" y="0px"
	 viewBox="0 0 658.03 293.848" enable-background="new 0 0 658.03 293.848" xml:space="preserve">
<g id="splunk-conf21-logo-vert-clrrev-rgb_00000003078221922354778980000005314464065902105494_">
	<g>
		<linearGradient id="SVGID_1_" gradientUnits="userSpaceOnUse" x1="23.8301" y1="-12.3051" x2="621.8439" y2="266.5533">
			<stop  offset="0.03" style="stop-color:#F99D1C"/>
			<stop  offset="0.2" style="stop-color:#F05A22"/>
			<stop  offset="0.219" style="stop-color:#F05329"/>
			<stop  offset="0.3274" style="stop-color:#EF2F4F"/>
			<stop  offset="0.428" style="stop-color:#EE156A"/>
			<stop  offset="0.5169" style="stop-color:#ED067A"/>
			<stop  offset="0.5849" style="stop-color:#ED0080"/>
			<stop  offset="0.6392" style="stop-color:#E80186"/>
			<stop  offset="0.7102" style="stop-color:#DC0296"/>
			<stop  offset="0.7906" style="stop-color:#C605B1"/>
			<stop  offset="0.8772" style="stop-color:#A908D7"/>
			<stop  offset="0.92" style="stop-color:#980AEC"/>
		</linearGradient>
		<path fill="url(#SVGID_1_)" d="M607.878-0.208H50.115c-17.914,0-33.637,9.411-42.48,23.546C2.797,31.048,0,40.156,0,49.945
			v127.857c0,27.703,22.45,50.153,50.153,50.153h28.497l32.919,66.102h20.711l33.826-66.102h441.773
			c27.703,0,50.153-22.45,50.153-50.153V49.945C658.03,22.242,635.58-0.208,607.878-0.208z"/>
		<path fill="#FFFFFF" d="M66.122,148.103c8.885,0,15.091,6.556,15.091,15.946c0,9.237-6.438,15.945-15.304,15.945h-0.208
			c-8.484,0-14.881-6.859-14.881-15.945C50.821,154.955,57.398,148.103,66.122,148.103 M226.084,67.802
			c30.315,0,51.486,22.486,51.486,54.68c0,39.035-27.46,56.814-52.972,56.814h-0.22c-30.185,0-51.268-22.575-51.268-54.897
			C173.11,91.075,194.894,67.802,226.084,67.802 M224.805,161.592c17.225,0,29.728-16.179,29.728-38.47
			c0-18.116-9.102-37.616-29.089-37.616c-20.532,0-29.723,19.213-29.723,38.253C195.721,145.681,207.953,161.592,224.805,161.592
			 M145.173,160.524c-20.33,0-33.988-14.775-33.988-36.765c0-22.719,13.591-37.398,34.627-37.398c6.253,0,12.062,1.05,17.281,3.124
			c2.807-5.684,6.33-10.871,10.482-15.437l-0.889-0.482c-4.91-2.658-14.892-5.763-26.875-5.763c-33.7,0-57.236,23.362-57.236,56.812
			c0,32.706,21.375,54.682,53.19,54.682c12.945,0,24.196-3.179,30.408-6.151l0.412-0.197c-3.996-4.512-7.372-9.626-10.053-15.226
			C156.991,159.633,151.456,160.524,145.173,160.524 M346.427,67.802c-17.894,0-28.277,10.169-31.912,14.541l-1.119,1.349
			l-0.11-1.75l-0.745-11.793h-20.295l0.149,1.951c0.593,7.89,0.845,16.2,0.845,27.79v77.053h22.396v-64.053
			c0-3.057,0.446-6.12,1.194-8.195c2.909-8.904,11.285-17.911,23.419-17.911c18.225,0,22.052,15.703,22.052,28.875v61.284h22.396
			v-63.416C384.695,70.007,352.817,67.802,346.427,67.802 M436.443,70.14l0.007-0.703c0.12-12.074,10.102-21.898,22.254-21.898
			h0.911V25.941h-1.842c-23.991,0-43.602,19.516-43.717,43.505l-0.003,0.694h-0.694l-17.185,0.011v17.916h17.185h0.696v0.696v88.18
			h22.393v-88.18v-0.696h0.696h22.469V70.148l-22.469-0.008H436.443z M534.387,176.953v-17.555h-41.261l29.858-34.659
			c7.352-8.552,11.403-14.104,11.403-24.457c0-19.205-13.503-31.058-32.408-31.058c-18.305,0-32.559,11.703-32.559,31.208h19.505
			c0-10.353,6.602-13.654,13.054-13.654c8.252,0,12.903,5.402,12.903,13.354c0,4.951-1.65,8.252-5.551,12.904l-39.911,46.362v17.555
			H534.387z M586.256,176.953V70.125H566.75L544.995,89.03v21.006l21.756-18.905v85.823H586.256z M471.692,25.8
			c-3.021,0-5.477,2.458-5.477,5.529c0,3.119,2.455,5.551,5.477,5.551c3.048,0,5.456-2.432,5.456-5.551
			c0-3.071-2.408-5.529-5.428-5.529H471.692z M471.72,26.66c2.456,0,4.418,2.088,4.418,4.692c0,2.603-1.962,4.692-4.418,4.668
			c-2.459,0-4.45-2.064-4.45-4.691c0-2.581,1.99-4.669,4.422-4.669H471.72z M470.661,31.892h0.687c0.785,0,1.18,0.296,1.327,1.082
			c0.123,0.81,0.27,1.375,0.419,1.572h1.03c-0.096-0.197-0.243-0.565-0.39-1.524c-0.123-0.908-0.493-1.4-1.034-1.498v-0.048
			c0.664-0.197,1.205-0.689,1.205-1.498c0-0.591-0.199-1.007-0.565-1.278c-0.37-0.271-0.983-0.468-1.918-0.468
			c-0.737,0-1.227,0.074-1.744,0.147v6.168h0.984V31.892z M470.661,29.044c0.17-0.025,0.394-0.05,0.713-0.05
			c1.106,0,1.499,0.54,1.499,1.081c0,0.762-0.688,1.057-1.499,1.057h-0.713V29.044z"/>
	</g>
</g>
</svg>
